<svg xmlns="http://www.w3.org/2000/svg" width="48" height="48" id="feedback"><g fill-rule="evenodd" transform="translate(0 -1004.362)"><circle cx="24" cy="1028.362" r="24" fill="#239fdb"></circle><path fill="#fff" d="M20.486 3.006a9.771 9.771 0 0 0-9.342 8.13c-.164-.029-.328-.06-.494-.08a8.306 8.306 0 0 0-5.576 1.333 8.323 8.323 0 0 0-3.053 10.18l-1.011 4.83a.5.5 0 0 0 .629.583l4.29-1.238A8.328 8.328 0 0 0 16.274 24.4a8.281 8.281 0 0 0 1.276-2.392 9.763 9.763 0 0 0 7.678-.508l5.134 1.48a.5.5 0 0 0 .63-.582l-1.212-5.76a9.788 9.788 0 0 0-3.576-12.003 9.763 9.763 0 0 0-5.717-1.63Zm.032.994a8.768 8.768 0 0 1 5.132 1.467 8.782 8.782 0 0 1 3.155 10.922.5.5 0 0 0-.03.326.5.5 0 0 0 .004.023l1.06 5.053-4.448-1.285a.5.5 0 0 0-.059-.014.5.5 0 0 0-.166-.023v.002a.5.5 0 0 0-.225.06 8.765 8.765 0 0 1-7.12.514A8.334 8.334 0 0 0 16.784 15h9.707a.5.5 0 1 0 0-1H16.068c-.098-.119-.194-.24-.3-.354a8.298 8.298 0 0 0-3.649-2.277A8.778 8.778 0 0 1 20.517 4Zm-5.061 4a.5.5 0 0 0 .05 1h10.981a.5.5 0 1 0 0-1h-10.98a.5.5 0 0 0-.051 0zm0 3a.5.5 0 0 0 .05 1h10.981a.5.5 0 1 0 0-1h-10.98a.5.5 0 0 0-.051 0zm-5.553 1a7.313 7.313 0 0 1 5.131 2.328 7.316 7.316 0 0 1 .445 9.461 7.32 7.32 0 0 1-9.263 1.982.5.5 60.003 0 0-.397-.035.5.5 0 0 0-.04.01l-3.62 1.045.863-4.127a.5.5 0 0 0 0-.006A.5.5 60.003 0 0 3 22.32a7.315 7.315 0 0 1 2.627-9.1A7.306 7.306 0 0 1 9.904 12Zm-4.447 4a.5.5 0 0 0 .05 1h8.985a.5.5 0 1 0 0-1H5.508a.5.5 0 0 0-.051 0zm13.783 1a.5.5 0 0 0 .051 1h2.404a.5.5 0 1 0 0-1h-2.404a.5.5 0 0 0-.05 0zM5.457 19a.5.5 0 0 0 .05 1h8.985a.5.5 0 1 0 0-1H5.508a.5.5 0 0 0-.051 0zm-.008 3a.5.5 0 0 0 .051 1h4a.5.5 0 1 0 0-1h-4a.5.5 0 0 0-.05 0z" color="#000" font-family="sans-serif" font-weight="400" overflow="visible" transform="translate(8 1012.361)" style="line-height:normal;text-indent:0;text-align:start;text-decoration-line:none;text-decoration-style:solid;text-decoration-color:#000;text-transform:none;block-progression:tb;isolation:auto;mix-blend-mode:normal"></path></g></svg>